<svg width="86" height="80" viewBox="0 0 86 80" fill="none" xmlns="http://www.w3.org/2000/svg">
<g clip-path="url(#clip0_3_2)">
<path d="M78.4777 45.3333C79.2615 45.3333 79.895 44.7359 79.895 44V38.6667C79.895 37.9308 79.2615 37.3334 78.4777 37.3334H71.3912V36C71.3912 35.2641 70.7577 34.6667 69.9739 34.6667C69.1902 34.6667 68.5567 35.2641 68.5567 36V37.3333H28.8724V36C28.8724 35.2641 28.2375 34.6667 27.4552 34.6667C26.6729 34.6667 26.038 35.2641 26.038 36V37.3333H18.9514C18.1691 37.3333 17.5342 37.9306 17.5342 38.6666V44C17.5342 44.7359 18.1691 45.3333 18.9514 45.3333H27.4552H69.9741H78.4777ZM20.3687 42.6667V40H77.0605V42.6667H20.3687Z" fill="#D4C17F"/>
<path d="M51.5491 29.3333C49.2574 29.3333 47.7762 30.9719 47.6146 31.16C47.1242 31.7267 47.215 32.5547 47.8144 33.0214C48.4153 33.4894 49.3041 33.4081 49.8072 32.8508C49.8128 32.8414 50.581 32.0002 51.549 32.0002C52.5169 32.0002 53.2838 32.8416 53.2838 32.8416C53.5645 33.1656 53.9725 33.3336 54.3849 33.3336C54.6995 33.3336 55.0142 33.2362 55.2778 33.035C55.8859 32.5709 55.9766 31.7309 55.4833 31.1603C55.322 30.972 53.8408 29.3333 51.5491 29.3333Z" fill="#D4C17F"/>
<path d="M78.4777 56C79.2615 56 79.895 55.4027 79.895 54.6667V49.3334C79.895 48.5975 79.2615 48.0002 78.4777 48.0002H71.3912V46.6669C71.3912 45.9309 70.7577 45.3336 69.9739 45.3336C69.1902 45.3336 68.5567 45.9309 68.5567 46.6669V48.0002H28.8724V46.6669C28.8724 45.9309 28.2375 45.3336 27.4552 45.3336C26.6729 45.3336 26.038 45.9309 26.038 46.6669V48.0002H18.9514C18.1691 48.0002 17.5342 48.5975 17.5342 49.3334V54.6667C17.5342 55.4027 18.1691 56 18.9514 56H27.4552H69.9741H78.4777ZM20.3687 53.3333V50.6666H77.0605V53.3333H20.3687Z" fill="#D4C17F"/>
<path d="M58.953 26.1733C59.2337 26.4986 59.6418 26.6666 60.0542 26.6666C60.3688 26.6666 60.6835 26.5692 60.9471 26.368C61.5552 25.9039 61.6458 25.0639 61.1526 24.4933C60.991 24.3053 59.5099 22.6666 57.2181 22.6666C54.9262 22.6666 53.4452 24.3052 53.2836 24.4933C52.7931 25.06 52.884 25.888 53.4834 26.3547C54.0843 26.8241 54.973 26.7414 55.4746 26.1841C55.4818 26.1747 56.2499 25.3334 57.2179 25.3334C58.1864 25.3333 58.953 26.1733 58.953 26.1733Z" fill="#D4C17F"/>
<path d="M1.9509 17.4667C2.02315 18.1481 2.6327 18.6667 3.36116 18.6667H11.8649C12.5934 18.6667 13.2028 18.1481 13.2752 17.4667L14.6924 4.13344C14.7321 3.7575 14.6018 3.38547 14.3325 3.10547C14.0646 2.82672 13.6835 2.66688 13.2823 2.66688H9.03029V1.33328C9.03029 0.597344 8.39533 0 7.61305 0C6.83077 0 6.19581 0.597344 6.19581 1.33328V2.66656H1.94392C1.54282 2.66656 1.16164 2.82656 0.89374 3.10516C0.624509 3.38516 0.494129 3.75719 0.533824 4.13312L1.9509 17.4667ZM11.7161 5.33328L10.5822 16H4.64371L3.50981 5.33328H11.7161Z" fill="#D4C17F"/>
<path d="M40.2107 30.6667C40.2107 32.1573 40.8584 33.5441 42.0347 34.5694C42.3067 34.8067 42.6527 34.9253 42.9985 34.9253C43.3784 34.9253 43.7582 34.7813 44.0374 34.4986C44.5689 33.9586 44.5363 33.1145 43.9623 32.6133C43.3699 32.0986 43.0453 31.4066 43.0453 30.6666C43.0453 29.5625 43.7922 28.5613 44.9062 28.1759C45.3683 28.0159 45.7084 27.6413 45.8048 27.1866C45.9026 26.7319 45.7395 26.2625 45.3796 25.9466C44.7871 25.4319 44.4626 24.7398 44.4626 23.9998C44.4626 22.6131 45.6234 21.4531 47.1044 21.3572C47.6487 21.3225 48.122 20.9986 48.3247 20.5225C48.526 20.0466 48.421 19.5039 48.0526 19.1266C47.5651 18.6266 47.2972 17.9892 47.2972 17.3333C47.2972 15.9466 48.458 14.7866 49.9391 14.6906C50.4833 14.6559 50.9567 14.332 51.1593 13.8559C51.3606 13.38 51.2556 12.8373 50.8873 12.46C50.4011 11.96 50.1319 11.3227 50.1319 10.6667C50.1319 9.47469 50.995 8.42266 52.2294 8.10813C52.6221 8.00813 52.9479 7.75609 53.128 7.41609C53.3093 7.07609 53.3264 6.6775 53.1748 6.32547C53.0373 5.99875 52.9665 5.66547 52.9665 5.33344C52.9665 3.86281 54.2378 2.66672 55.8012 2.66672C57.3644 2.66672 58.6358 3.86266 58.6358 5.33344C58.6358 5.66547 58.5649 5.99875 58.4276 6.32547C58.2759 6.6775 58.2929 7.07609 58.4744 7.41609C58.6544 7.75609 58.9803 8.00813 59.3729 8.10813C60.6075 8.42281 61.4705 9.47484 61.4705 10.6667C61.4705 11.3227 61.2012 11.96 60.7151 12.46C60.3465 12.8373 60.2417 13.38 60.443 13.8559C60.6457 14.3319 61.119 14.6559 61.6633 14.6906C63.1443 14.7866 64.3051 15.9466 64.3051 17.3333C64.3051 17.9892 64.0359 18.6266 63.5497 19.1266C63.1812 19.5039 63.0764 20.0466 63.2777 20.5225C63.4803 20.9984 63.9537 21.3225 64.498 21.3572C65.979 21.4531 67.1398 22.6131 67.1398 23.9998C67.1398 24.7398 66.8152 25.4319 66.2228 25.9466C65.8629 26.2625 65.6998 26.7319 65.7976 27.1866C65.8939 27.6413 66.2341 28.0159 66.6976 28.1759C67.8103 28.5613 68.5572 29.5627 68.5572 30.6666C68.5572 31.4025 69.1906 31.9998 69.9744 31.9998C70.7582 31.9998 71.3917 31.4025 71.3917 30.6666C71.3917 29.0425 70.5909 27.5319 69.2885 26.5372C69.7364 25.7678 69.9744 24.9025 69.9744 23.9998C69.9744 21.9145 68.6705 20.0825 66.7686 19.2158C67.0124 18.6184 67.1399 17.9811 67.1399 17.3331C67.1399 15.2478 65.836 13.4158 63.9341 12.5491C64.1779 11.9517 64.3055 11.3144 64.3055 10.6664C64.3055 8.72234 63.1687 6.96641 61.4198 6.03703C61.4539 5.80375 61.4708 5.56906 61.4708 5.33297C61.4701 2.39203 58.9276 0 55.801 0C52.6744 0 50.1319 2.39203 50.1319 5.33328C50.1319 5.56922 50.1488 5.80391 50.1829 6.03734C48.4339 6.96672 47.2972 8.72266 47.2972 10.6667C47.2972 11.3147 47.4248 11.952 47.6686 12.5494C45.7666 13.4161 44.4627 15.248 44.4627 17.3334C44.4627 17.9814 44.5903 18.6188 44.8341 19.2161C42.9321 20.0828 41.6283 21.9147 41.6283 24.0002C41.6283 24.9028 41.8664 25.7681 42.3142 26.5375C41.0116 27.532 40.2107 29.0427 40.2107 30.6667Z" fill="#D4C17F"/>
<path d="M53.8438 18.5614C54.5638 18.8414 55.3929 18.5187 55.6949 17.8414C55.7218 17.7773 55.7615 17.7067 55.8012 17.6373C55.8409 17.7041 55.8777 17.7733 55.9047 17.8359C56.1285 18.3533 56.6587 18.668 57.2184 18.668C57.397 18.668 57.577 18.6359 57.7512 18.568C58.4769 18.292 58.827 17.5133 58.5322 16.832C58.3749 16.4706 57.5104 14.6667 55.801 14.6667C54.0918 14.6667 53.2271 16.4708 53.0698 16.832C52.7765 17.5106 53.1238 18.2814 53.8438 18.5614Z" fill="#D4C17F"/>
<path d="M84.147 77.3333H61.4701C60.6864 77.3333 60.0529 77.9306 60.0529 78.6666C60.0529 79.4025 60.6864 79.9998 61.4701 79.9998H84.1468C84.9306 79.9998 85.564 79.4025 85.564 78.6666C85.564 77.9306 84.9307 77.3333 84.147 77.3333Z" fill="#D4C17F"/>
<path d="M84.147 58.6667H71.3913V57.3334C71.3913 56.5975 70.7579 56.0002 69.9741 56.0002C69.1903 56.0002 68.5568 56.5975 68.5568 57.3334V58.6667H28.8724V57.3334C28.8724 56.5975 28.2375 56.0002 27.4552 56.0002C26.6729 56.0002 26.0379 56.5975 26.0379 57.3334V58.6667H13.2821C12.4998 58.6667 11.8649 59.2641 11.8649 60V65.3333C11.8649 66.0692 12.4998 66.6666 13.2821 66.6666H17.534V73.3333C17.534 74.0692 18.169 74.6666 18.9512 74.6666C19.7335 74.6666 20.3685 74.0692 20.3685 73.3333V66.6666H77.0604V73.3333C77.0604 74.0692 77.6939 74.6666 78.4777 74.6666C79.2615 74.6666 79.8949 74.0692 79.8949 73.3333V66.6666H84.1468C84.9306 66.6666 85.5641 66.0692 85.5641 65.3333V60C85.5642 59.2641 84.9308 58.6667 84.147 58.6667ZM82.7296 64H14.6994V61.3333H82.7296V64Z" fill="#D4C17F"/>
<path d="M21.7859 77.3333H9.03022V22.6667C9.03022 21.9308 8.39527 21.3334 7.61298 21.3334C6.8307 21.3334 6.19574 21.9308 6.19574 22.6667V77.3334H1.94385C1.16157 77.3334 0.526611 77.9308 0.526611 78.6667C0.526611 79.4027 1.16141 80 1.94369 80H21.7859C22.5682 80 23.2031 79.4027 23.2031 78.6667C23.2031 77.9308 22.5682 77.3333 21.7859 77.3333Z" fill="#D4C17F"/>
<path d="M55.801 77.3333H52.9663C52.1826 77.3333 51.5491 77.9306 51.5491 78.6666C51.5491 79.4025 52.1826 79.9998 52.9663 79.9998H55.801C56.5848 79.9998 57.2182 79.4025 57.2182 78.6666C57.2182 77.9306 56.5848 77.3333 55.801 77.3333Z" fill="#D4C17F"/>
<path d="M44.4626 77.3333H30.2897C29.5074 77.3333 28.8724 77.9306 28.8724 78.6666C28.8724 79.4025 29.5074 80 30.2897 80H44.4626C45.2464 80 45.8798 79.4027 45.8798 78.6667C45.8798 77.9308 45.2464 77.3333 44.4626 77.3333Z" fill="#D4C17F"/>
</g>
<defs>
<clipPath id="clip0_3_2">
<rect width="85.0378" height="80" fill="white" transform="translate(0.526459)"/>
</clipPath>
</defs>
</svg>
