<svg width="86" height="80" viewBox="0 0 86 80" fill="none" xmlns="http://www.w3.org/2000/svg">
<g clip-path="url(#clip0_5_62)">
<path d="M21.8363 68.0011H1.99408C1.21031 68.0011 0.576843 68.5984 0.576843 69.3344C0.576843 70.0703 1.21031 70.6676 1.99408 70.6676H21.8363C22.6201 70.6676 23.2535 70.0703 23.2535 69.3344C23.2535 68.5984 22.6201 68.0011 21.8363 68.0011Z" fill="#D4C17F"/>
<path d="M17.5844 65.3317C26.9626 65.3317 34.5919 58.153 34.5919 49.3317C34.5919 44.9144 32.7196 40.8011 29.3196 37.7491C28.7556 37.2423 27.8555 37.2623 27.3156 37.7931C26.7756 38.3264 26.7969 39.1705 27.3624 39.6784C30.1955 42.2225 31.7575 45.6491 31.7575 49.3317C31.7575 56.6837 25.3994 62.665 17.5845 62.665C9.76971 62.665 3.41164 56.6836 3.41164 49.3317C3.41164 41.9784 9.76971 35.9984 17.5845 35.9984C18.3683 35.9984 19.0018 35.4011 19.0018 34.6651C19.0018 33.9278 18.3683 33.3319 17.5845 33.3319C8.20631 33.3319 0.576996 40.5092 0.576996 49.3319C0.57683 58.153 8.20615 65.3317 17.5844 65.3317Z" fill="#D4C17F"/>
<path d="M24.6709 27.9983H25.3894L17.2017 46.7009C15.8214 46.8783 14.7498 47.9836 14.7498 49.3316C14.7498 50.8022 16.021 51.9983 17.5844 51.9983C19.1476 51.9983 20.4191 50.8023 20.4191 49.3316C20.4191 48.7209 20.1923 48.1663 19.8238 47.7156L27.8217 29.4462L36.7918 41.6983C37.2339 42.305 38.1142 42.4595 38.7618 42.0409C39.4081 41.6223 39.5697 40.793 39.1247 40.1862L30.2014 27.9983H33.1749C35.5191 27.9983 37.4268 26.2036 37.4268 23.9983C37.4268 21.7916 35.5191 19.9983 33.1749 19.9983H24.6711C23.8873 19.9983 23.2539 20.5942 23.2539 21.3316V26.6648C23.2535 27.4011 23.8872 27.9983 24.6709 27.9983ZM26.0882 22.665H33.1747C33.957 22.665 34.592 23.2623 34.592 23.9983C34.592 24.733 33.957 25.3316 33.1747 25.3316H26.0882V22.665Z" fill="#D4C17F"/>
<path d="M67.1898 34.665C67.1898 35.4009 67.8233 35.9983 68.6071 35.9983C76.4221 35.9983 82.78 41.9783 82.78 49.3316C82.78 56.6836 76.4219 62.6648 68.6071 62.6648C60.7922 62.6648 54.4342 56.6834 54.4342 49.3316C54.4342 45.3356 56.315 41.5848 59.5974 39.0383C60.1998 38.5703 60.2862 37.7303 59.7872 37.1623C59.2898 36.5956 58.3982 36.5117 57.7917 36.9811C53.8572 40.0358 51.5995 44.5358 51.5995 49.3317C51.5995 58.153 59.2288 65.3317 68.6071 65.3317C77.9853 65.3317 85.6146 58.153 85.6146 49.3317C85.6146 40.5091 77.9853 33.3317 68.6071 33.3317C67.8233 33.3317 67.1898 33.9276 67.1898 34.665Z" fill="#D4C17F"/>
<path d="M44.513 68.0011H30.3401C29.5563 68.0011 28.9228 68.5984 28.9228 69.3344C28.9228 70.0703 29.5563 70.6676 30.3401 70.6676H44.513C45.2967 70.6676 45.9302 70.0703 45.9302 69.3344C45.9304 68.5984 45.2967 68.0011 44.513 68.0011Z" fill="#D4C17F"/>
<path d="M44.513 42.8544V38.665C45.2968 38.665 45.9302 38.0677 45.9302 37.3317C45.9302 36.5944 45.2968 35.9984 44.513 35.9984H41.6783C40.8946 35.9984 40.2611 36.5944 40.2611 37.3317C40.2611 38.0677 40.8946 38.665 41.6783 38.665V42.8544C39.2392 43.4503 37.4265 45.5197 37.4265 47.9984C37.4265 50.4758 39.2392 52.5452 41.6783 53.1425V57.3319C40.8946 57.3319 40.2611 57.9278 40.2611 58.6652C40.2611 59.4011 40.8946 59.9984 41.6783 59.9984H44.513C45.2968 59.9984 45.9302 59.4011 45.9302 58.6652C45.9302 57.9278 45.2968 57.3319 44.513 57.3319V53.1425C46.9522 52.5452 48.7649 50.4758 48.7649 47.9984C48.7649 45.5197 46.9522 43.4503 44.513 42.8544ZM43.0958 50.665C41.5338 50.665 40.2611 49.4691 40.2611 47.9983C40.2611 46.5277 41.5338 45.3316 43.0958 45.3316C44.659 45.3316 45.9304 46.5275 45.9304 47.9983C45.9304 49.4691 44.659 50.665 43.0958 50.665Z" fill="#D4C17F"/>
<path d="M66.423 47.6517C66.0234 48.1117 65.7724 48.6917 65.7724 49.3317C65.7724 50.8023 67.0452 51.9984 68.6071 51.9984C70.169 51.9984 71.4417 50.8025 71.4417 49.3317C71.4417 48.0117 70.4141 46.9211 69.0763 46.7091L62.68 30.665H72.798C74.4944 30.665 75.481 29.3891 75.6665 28.2597L77.0824 21.593C77.166 21.2009 77.0583 20.7944 76.7891 20.4862C76.5199 20.1769 76.1188 19.9983 75.6936 19.9983H62.9379C62.1542 19.9983 61.5207 20.5942 61.5207 21.3316C61.5207 22.0675 62.1542 22.6648 62.9379 22.6648H73.9644L72.8817 27.7662C72.8604 27.8583 72.7995 27.9876 72.7982 27.9983H61.6172L57.1796 16.8636C57.1768 16.8583 57.1725 16.8556 57.1711 16.8503C57.1683 16.845 57.1696 16.8397 57.1683 16.8356L54.3337 10.1689C54.0432 9.48484 53.2112 9.15687 52.4912 9.42624C51.7641 9.69952 51.4098 10.4756 51.7003 11.1595L54.2827 17.2275L48.9522 26.0034C48.5624 26.6422 48.7991 27.4567 49.4794 27.8222C49.7004 27.9408 49.9428 27.9981 50.1809 27.9981C50.6742 27.9981 51.1517 27.7569 51.4125 27.3261L55.585 20.4581L58.995 29.0141L48.1937 40.4447C47.6722 40.9953 47.726 41.838 48.3113 42.3273C48.5805 42.5541 48.9165 42.6647 49.2523 42.6647C49.6421 42.6647 50.0318 42.5127 50.311 42.2167L60.1201 31.8367L66.423 47.6517Z" fill="#D4C17F"/>
<path d="M84.1974 68.0011H61.5205C60.7368 68.0011 60.1033 68.5984 60.1033 69.3344C60.1033 70.0703 60.7368 70.6676 61.5205 70.6676H84.1972C84.981 70.6676 85.6145 70.0703 85.6145 69.3344C85.6146 68.5984 84.9812 68.0011 84.1974 68.0011Z" fill="#D4C17F"/>
<path d="M55.8514 68.0011H53.0168C52.233 68.0011 51.5995 68.5984 51.5995 69.3344C51.5995 70.0703 52.233 70.6676 53.0168 70.6676H55.8514C56.6352 70.6676 57.2686 70.0703 57.2686 69.3344C57.2686 68.5984 56.6352 68.0011 55.8514 68.0011Z" fill="#D4C17F"/>
</g>
<defs>
<clipPath id="clip0_5_62">
<rect width="85.0378" height="80" fill="white" transform="translate(0.576843)"/>
</clipPath>
</defs>
</svg>
