<svg width="86" height="80" viewBox="0 0 86 80" fill="none" xmlns="http://www.w3.org/2000/svg">
<g clip-path="url(#clip0_3_18)">
<path d="M61.1427 74.6667H21.4585C20.6762 74.6667 20.0412 75.2641 20.0412 76V78.6667C20.0412 79.4027 20.6762 80 21.4585 80C22.2407 80 22.8757 79.4027 22.8757 78.6667V77.3334H61.1427C61.925 77.3334 62.5599 76.7361 62.5599 76.0002C62.5599 75.2642 61.9251 74.6667 61.1427 74.6667Z" fill="#D4C17F"/>
<path d="M31.3795 33.3333C31.3795 34.0692 32.0144 34.6666 32.7967 34.6666H38.466C39.2483 34.6666 39.8833 34.0692 39.8833 33.3333V25.3333C39.8833 24.5973 39.2483 24 38.466 24H32.7969C32.0146 24 31.3796 24.5973 31.3796 25.3333V33.3333H31.3795ZM34.2141 26.6667H37.0488V32H34.2141V26.6667Z" fill="#D4C17F"/>
<path d="M18.6238 16H1.61625C0.833965 16 0.199005 16.5973 0.199005 17.3333V44C0.199005 44.7359 0.833965 45.3333 1.61625 45.3333C2.39853 45.3333 3.03349 44.7359 3.03349 44V18.6667H18.6238C19.4061 18.6667 20.041 18.0694 20.041 17.3334C20.041 16.5975 19.4062 16 18.6238 16Z" fill="#D4C17F"/>
<path d="M68.2292 65.3333C68.2292 66.0692 68.8642 66.6666 69.6465 66.6666H75.3156C76.0979 66.6666 76.7328 66.0692 76.7328 65.3333V57.3333C76.7328 56.5973 76.0979 56 75.3156 56H69.6465C68.8642 56 68.2292 56.5973 68.2292 57.3333V65.3333ZM71.0639 58.6667H73.8985V64H71.0639V58.6667Z" fill="#D4C17F"/>
<path d="M7.28554 48C0.279725 48 0.199005 65.16 0.199005 65.3333C0.199005 68.5533 2.63819 71.2453 5.86813 71.8653V78.6667C5.86813 79.4027 6.5031 80 7.28538 80C8.06766 80 8.70262 79.4027 8.70262 78.6667V71.8653C11.9326 71.2453 14.3717 68.5533 14.3717 65.3333C14.3719 65.16 14.2912 48 7.28554 48ZM7.28554 69.3333C4.94136 69.3333 3.03365 67.5386 3.03365 65.3333C3.03365 58.6906 4.93006 50.6666 7.28554 50.6666C9.64102 50.6666 11.5374 58.6906 11.5374 65.3333C11.5374 67.5386 9.62973 69.3333 7.28554 69.3333Z" fill="#D4C17F"/>
<path d="M15.7893 40H10.12C9.33775 40 8.70279 40.5973 8.70279 41.3333V44C8.70279 44.7359 9.33775 45.3333 10.12 45.3333C10.9023 45.3333 11.5373 44.7359 11.5373 44V42.6667H14.3719V49.3334C14.3719 50.0694 15.0069 50.6667 15.7892 50.6667C16.5714 50.6667 17.2064 50.0694 17.2064 49.3334V41.3334C17.2066 40.5973 16.5716 40 15.7893 40Z" fill="#D4C17F"/>
<path d="M69.6465 34.6667H75.3156C76.0979 34.6667 76.7328 34.0694 76.7328 33.3334V25.3334C76.7328 24.5975 76.0979 24.0002 75.3156 24.0002H69.6465C68.8642 24.0002 68.2292 24.5975 68.2292 25.3334V33.3334C68.2292 34.0694 68.8642 34.6667 69.6465 34.6667ZM71.0639 26.6667H73.8985V32H71.0639V26.6667Z" fill="#D4C17F"/>
<path d="M15.7893 24H10.12C9.33775 24 8.70279 24.5973 8.70279 25.3333V33.3333C8.70279 34.0692 9.33775 34.6666 10.12 34.6666H15.7892C16.5714 34.6666 17.2064 34.0692 17.2064 33.3333V25.3333C17.2066 24.5973 16.5716 24 15.7893 24ZM14.3719 32H11.5374V26.6667H14.3721V32H14.3719Z" fill="#D4C17F"/>
<path d="M45.5525 33.3333C45.5525 34.0692 46.1875 34.6666 46.9698 34.6666H52.6389C53.4212 34.6666 54.0561 34.0692 54.0561 33.3333V25.3333C54.0561 24.5973 53.4212 24 52.6389 24H46.9698C46.1875 24 45.5525 24.5973 45.5525 25.3333V33.3333ZM48.387 26.6667H51.2217V32H48.387V26.6667Z" fill="#D4C17F"/>
<path d="M83.8195 16H66.812C66.0297 16 65.3947 16.5973 65.3947 17.3333C65.3947 18.0692 66.0297 18.6666 66.812 18.6666H82.4023V72.2453C81.9573 72.0959 81.4853 72 80.9851 72C80.7399 72 80.4961 72.02 80.2566 72.06C79.2787 70.4027 77.4178 69.3333 75.3159 69.3333C73.2141 69.3333 71.3532 70.4027 70.3753 72.06C70.1358 72.02 69.892 72 69.6468 72C67.3026 72 65.3949 73.7947 65.3949 76C65.3949 78.2053 67.3026 80 69.6468 80H80.9849C83.3291 80 85.2368 78.2053 85.2368 76V17.3333C85.2368 16.5973 84.6018 16 83.8195 16ZM80.9849 77.3333H69.6465C68.8655 77.3333 68.2292 76.7347 68.2292 76C68.2292 75.2653 68.8655 74.6667 69.6465 74.6667C69.9185 74.6667 70.1765 74.74 70.4146 74.8841C70.8029 75.1187 71.2878 75.1614 71.7158 74.9987C72.1438 74.8361 72.4599 74.4867 72.5633 74.0641C72.8625 72.8494 73.9949 72 75.3158 72C76.6367 72 77.7691 72.8494 78.0682 74.0641C78.1717 74.4867 78.4877 74.8361 78.9158 74.9987C79.3424 75.1614 79.8284 75.1187 80.2169 74.8841C81.1395 74.3241 82.4023 75.0094 82.4023 76C82.4021 76.7347 81.7658 77.3333 80.9849 77.3333Z" fill="#D4C17F"/>
<path d="M46.9698 18.6667H52.6389C53.4212 18.6667 54.0561 18.0694 54.0561 17.3334V9.33344C54.0561 8.59751 53.4212 8.00016 52.6389 8.00016H46.9698C46.1875 8.00016 45.5525 8.59751 45.5525 9.33344V17.3334C45.5525 18.0694 46.1875 18.6667 46.9698 18.6667ZM48.387 10.6667H51.2217V16H48.387V10.6667Z" fill="#D4C17F"/>
<path d="M45.5525 49.3333C45.5525 50.0692 46.1875 50.6666 46.9698 50.6666H52.6389C53.4212 50.6666 54.0561 50.0692 54.0561 49.3333V41.3333C54.0561 40.5973 53.4212 40 52.6389 40H46.9698C46.1875 40 45.5525 40.5973 45.5525 41.3333V49.3333ZM48.387 42.6667H51.2217V48H48.387V42.6667Z" fill="#D4C17F"/>
<path d="M32.7969 18.6667H38.466C39.2483 18.6667 39.8833 18.0694 39.8833 17.3334V9.33344C39.8833 8.59751 39.2483 8.00016 38.466 8.00016H32.7969C32.0146 8.00016 31.3796 8.59751 31.3796 9.33344V17.3334C31.3795 18.0694 32.0144 18.6667 32.7969 18.6667ZM34.2141 10.6667H37.0488V16H34.2141V10.6667Z" fill="#D4C17F"/>
<path d="M41.7116 64.3867C41.4564 64.64 41.3005 64.9867 41.3005 65.3334C41.3005 65.6802 41.4564 66.0267 41.7116 66.2802C41.9808 66.5202 42.3493 66.6669 42.7179 66.6669C43.0865 66.6669 43.4548 66.5202 43.7242 66.2802C43.9793 66.0269 44.1353 65.6802 44.1353 65.3334C44.1353 64.9867 43.9793 64.6402 43.7242 64.3867C43.1856 63.8933 42.2502 63.8933 41.7116 64.3867Z" fill="#D4C17F"/>
<path d="M31.3795 49.3333C31.3795 50.0692 32.0144 50.6666 32.7967 50.6666H38.466C39.2483 50.6666 39.8833 50.0692 39.8833 49.3333V41.3333C39.8833 40.5973 39.2483 40 38.466 40H32.7969C32.0146 40 31.3796 40.5973 31.3796 41.3333V49.3333H31.3795ZM34.2141 42.6667H37.0488V48H34.2141V42.6667Z" fill="#D4C17F"/>
<path d="M28.545 57.3333C28.545 58.0692 29.1799 58.6666 29.9622 58.6666H34.2141V70.6666C34.2141 71.4025 34.8491 71.9998 35.6314 71.9998C36.4136 71.9998 37.0486 71.4025 37.0486 70.6666V58.6666H48.387V70.6666C48.387 71.4025 49.022 71.9998 49.8043 71.9998C50.5865 71.9998 51.2215 71.4025 51.2215 70.6666V58.6666H55.4734C56.2557 58.6666 56.8906 58.0692 56.8906 57.3333C56.8906 56.5973 56.2557 56 55.4734 56H29.9622C29.1799 56 28.545 56.5973 28.545 57.3333Z" fill="#D4C17F"/>
<path d="M68.2292 49.3333C68.2292 50.0692 68.8642 50.6666 69.6465 50.6666H75.3156C76.0979 50.6666 76.7328 50.0692 76.7328 49.3333V41.3333C76.7328 40.5973 76.0979 40 75.3156 40H69.6465C68.8642 40 68.2292 40.5973 68.2292 41.3333V49.3333ZM71.0639 42.6667H73.8985V48H71.0639V42.6667Z" fill="#D4C17F"/>
<path d="M61.1427 0H24.2931C23.5108 0 22.8759 0.597344 22.8759 1.33328V70.6666C22.8759 71.4025 23.5108 71.9998 24.2931 71.9998C25.0754 71.9998 25.7103 71.4025 25.7103 70.6666V2.66656H59.7255V70.6666C59.7255 71.4025 60.3604 71.9998 61.1427 71.9998C61.925 71.9998 62.5599 71.4025 62.5599 70.6666V1.33328C62.5601 0.597344 61.9251 0 61.1427 0Z" fill="#D4C17F"/>
</g>
<defs>
<clipPath id="clip0_3_18">
<rect width="85.0378" height="80" fill="white" transform="translate(0.199005)"/>
</clipPath>
</defs>
</svg>
