<svg width="86" height="80" viewBox="0 0 86 80" fill="none" xmlns="http://www.w3.org/2000/svg">
<g clip-path="url(#clip0_5_2)">
<path d="M56.7967 4.62187C56.9908 4.62187 57.1865 4.58453 57.375 4.50453C57.7803 4.33391 58.1913 4.1725 58.608 4.02453C59.3408 3.76188 59.7092 2.9925 59.43 2.30453C59.1521 1.61516 58.333 1.27391 57.603 1.52985C57.1338 1.69782 56.6704 1.87922 56.2155 2.07125C55.5012 2.37266 55.181 3.16188 55.5027 3.83391C55.738 4.32844 56.2539 4.62187 56.7967 4.62187Z" fill="#D4C17F"/>
<path d="M56.7372 33.5377C57.521 33.5377 58.1544 32.9418 58.1544 32.2045V31.9738C58.1544 31.6232 58.1785 31.2792 58.2253 30.9406C58.3273 30.2099 57.7802 29.5406 57.0064 29.4446C56.207 29.3487 55.5183 29.8632 55.4148 30.5926C55.3525 31.0432 55.3198 31.5085 55.3198 31.974V32.2046C55.32 32.9418 55.9534 33.5377 56.7372 33.5377Z" fill="#D4C17F"/>
<path d="M49.6507 33.8671C50.4345 33.8671 51.0679 33.2698 51.0679 32.5338V31.1792C51.0679 30.4432 50.4345 29.8459 49.6507 29.8459C48.8669 29.8459 48.2334 30.4432 48.2334 31.1792V32.5338C48.2334 33.2698 48.8669 33.8671 49.6507 33.8671Z" fill="#D4C17F"/>
<path d="M57.7889 12.7778C57.3325 13.0137 56.886 13.2684 56.4567 13.5392C55.8061 13.9486 55.6304 14.7778 56.0655 15.3898C56.3391 15.7739 56.7884 15.9804 57.2448 15.9804C57.5168 15.9804 57.7904 15.9084 58.0314 15.7551C58.3956 15.5271 58.7711 15.3125 59.1566 15.1125C59.8412 14.7578 60.092 13.9457 59.715 13.3018C59.3365 12.6565 58.4761 12.4245 57.7889 12.7778Z" fill="#D4C17F"/>
<path d="M37.686 12.6419C37.9539 13.0445 38.4144 13.2659 38.8864 13.2659C39.1444 13.2659 39.4051 13.2006 39.6377 13.0619C40.301 12.6698 40.5022 11.8472 40.0856 11.2245C39.8177 10.8231 39.54 10.4312 39.248 10.0472C38.7931 9.44859 37.9102 9.30859 37.2709 9.73921C36.6331 10.1686 36.4871 11.0006 36.942 11.5992C37.2011 11.9392 37.4493 12.2872 37.686 12.6419Z" fill="#D4C17F"/>
<path d="M63.5983 2.82187C63.6565 2.82187 63.7174 2.8178 63.7769 2.81124C64.2149 2.75921 64.6585 2.71921 65.1063 2.68984C65.8886 2.64046 66.4782 2.00578 66.4272 1.27125C66.3762 0.536559 65.6902 -0.0193774 64.9193 0.0298413C64.4147 0.0604662 63.9157 0.107185 63.4226 0.165779C62.646 0.25781 62.0946 0.924371 62.1939 1.65515C62.2831 2.32843 62.894 2.82187 63.5983 2.82187Z" fill="#D4C17F"/>
<path d="M58.343 24.7218C57.8115 25.2618 57.844 26.1059 58.4167 26.6059C58.6917 26.8445 59.036 26.9618 59.3818 26.9618C59.763 26.9618 60.1415 26.8192 60.4221 26.5351C60.7169 26.2365 61.0414 25.9537 61.3872 25.6951C62.0009 25.2365 62.1029 24.3978 61.6154 23.8218C61.1293 23.2459 60.2364 23.1471 59.6242 23.6071C59.1664 23.9484 58.7356 24.3245 58.343 24.7218Z" fill="#D4C17F"/>
<path d="M45.4895 13.0619C45.7233 13.2005 45.9841 13.2659 46.242 13.2659C46.7141 13.2659 47.1746 13.0445 47.4425 12.6419C47.6792 12.2872 47.9272 11.9392 48.1866 11.5992C48.6415 11.0006 48.4955 10.1686 47.8577 9.73921C47.2185 9.30859 46.3355 9.44859 45.8806 10.0472C45.5886 10.4312 45.3094 10.8231 45.043 11.2245C44.6265 11.8472 44.8276 12.6698 45.4895 13.0619Z" fill="#D4C17F"/>
<path d="M56.7372 39.9738C57.521 39.9738 58.1544 39.3765 58.1544 38.6405V37.9738C58.1544 37.2379 57.521 36.6406 56.7372 36.6406C55.9534 36.6406 55.32 37.2379 55.32 37.9738V38.6405C55.32 39.3765 55.9534 39.9738 56.7372 39.9738Z" fill="#D4C17F"/>
<path d="M49.621 27.091C49.6862 27.1004 49.75 27.1043 49.8138 27.1043C50.511 27.1043 51.1206 26.619 51.2182 25.9496C51.2764 25.539 51.3543 25.1337 51.4506 24.7337C51.625 24.0151 51.1458 23.3017 50.382 23.139C49.6181 22.9764 48.8584 23.4257 48.6855 24.1443C48.5721 24.6203 48.4786 25.1029 48.4077 25.591C48.3029 26.3204 48.8472 26.9924 49.621 27.091Z" fill="#D4C17F"/>
<path d="M39.972 17.1792C40.1137 17.5739 40.2412 17.9725 40.359 18.3778C40.5306 18.971 41.1031 19.3618 41.7252 19.3618C41.8485 19.3618 41.9732 19.3459 42.0979 19.3139C42.2737 19.2698 42.4268 19.1898 42.5642 19.0953C42.7017 19.1899 42.8546 19.2699 43.0304 19.3139C43.1551 19.3459 43.2798 19.3618 43.4031 19.3618C44.0252 19.3618 44.5979 18.9712 44.7693 18.3778C44.8869 17.9725 45.0131 17.5737 45.1563 17.1792C45.4099 16.4818 45.0118 15.7245 44.2719 15.4871C43.5916 15.2686 42.8744 15.5818 42.564 16.1739C42.2536 15.5818 41.5364 15.2686 40.8561 15.4871C40.1152 15.7245 39.7184 16.4818 39.972 17.1792Z" fill="#D4C17F"/>
<path d="M50.8399 8.20842C51.1701 8.20842 51.5017 8.10045 51.7696 7.8817C52.1055 7.60701 52.4499 7.34029 52.8014 7.08576C53.4222 6.63639 53.537 5.80045 53.0608 5.21639C52.5832 4.63233 51.6931 4.5217 51.0737 4.97233C50.6754 5.26029 50.2871 5.55904 49.9101 5.86967C49.3192 6.35232 49.2567 7.19498 49.7713 7.75107C50.0505 8.05388 50.4444 8.20842 50.8399 8.20842Z" fill="#D4C17F"/>
<path d="M51.9411 17.5418C51.6293 17.9312 51.3345 18.3339 51.0581 18.7471C50.6401 19.3698 50.8399 20.1939 51.5017 20.5871C51.7371 20.7245 51.9964 20.7912 52.2558 20.7912C52.7263 20.7912 53.1869 20.5712 53.4563 20.1685C53.6916 19.8179 53.9409 19.4765 54.206 19.1471C54.6765 18.5592 54.5518 17.7231 53.9268 17.2792C53.3003 16.8351 52.4116 16.9565 51.9411 17.5418Z" fill="#D4C17F"/>
<path d="M65.2084 10.6939C64.6841 10.7312 64.1682 10.7898 63.6593 10.8686C62.8868 10.9886 62.364 11.6753 62.4915 12.4018C62.605 13.0551 63.2044 13.5178 63.8875 13.5178C63.9641 13.5178 64.0406 13.5125 64.1185 13.5004C64.5509 13.4337 64.9859 13.3845 65.4267 13.3525C66.2076 13.2951 66.7916 12.6539 66.7306 11.9192C66.6695 11.1858 66.0048 10.6312 65.2084 10.6939Z" fill="#D4C17F"/>
<path d="M70.4523 2.92047C70.8931 2.98719 71.3325 3.06578 71.7661 3.15516C71.8696 3.17656 71.9702 3.18578 72.0709 3.18578C72.7228 3.18578 73.3082 2.76172 73.4542 2.13906C73.6215 1.41906 73.1382 0.708441 72.3728 0.551098C71.8854 0.449848 71.3949 0.36313 70.8975 0.288442C70.125 0.168442 69.3993 0.668441 69.2761 1.39516C69.1527 2.12188 69.6785 2.80578 70.4523 2.92047Z" fill="#D4C17F"/>
<path d="M72.8772 11.6525C72.3883 11.4884 71.8908 11.3419 71.3876 11.2165C70.635 11.0325 69.8569 11.4525 69.6543 12.1645C69.4545 12.8765 69.9051 13.6058 70.6619 13.7951C71.0886 13.9004 71.508 14.0231 71.9191 14.1631C72.0778 14.2164 72.238 14.2417 72.3981 14.2417C72.9792 14.2417 73.5248 13.9017 73.7318 13.3576C73.997 12.6645 73.6128 11.9004 72.8772 11.6525Z" fill="#D4C17F"/>
<path d="M66.0814 21.3204C65.2991 21.3578 64.6967 21.9831 64.7364 22.7178C64.7746 23.4537 65.3883 24.0137 66.2217 23.9831C66.6569 23.9631 67.1061 23.9751 67.537 24.0164C67.5866 24.0217 67.6361 24.0231 67.6845 24.0231C68.403 24.0231 69.0166 23.5125 69.0932 22.8271C69.1726 22.0939 68.6057 21.4392 67.8276 21.3631C67.2535 21.3084 66.6597 21.2912 66.0814 21.3204Z" fill="#D4C17F"/>
<path d="M82.6184 8.87247C82.8976 9.16044 83.2817 9.30716 83.6657 9.30716C84.0074 9.30716 84.3489 9.19247 84.6209 8.95919C85.1992 8.46326 85.2403 7.61919 84.7131 7.07513C84.543 6.90045 84.3701 6.72841 84.1957 6.56045C83.6458 6.03373 82.7501 6.02717 82.1917 6.5417C81.6305 7.05638 81.6233 7.90029 82.1689 8.42701C82.3222 8.57247 82.4724 8.72185 82.6184 8.87247Z" fill="#D4C17F"/>
<path d="M60.9891 50.6404H43.9816C43.1978 50.6404 42.5643 51.2377 42.5643 51.9736C42.5643 52.7096 43.1978 53.3069 43.9816 53.3069H60.9891C64.9631 53.3069 68.0756 50.379 68.0756 46.6402V43.9735C68.0756 43.2376 67.4422 42.6402 66.6584 42.6402H18.4703C17.6865 42.6402 17.053 43.2376 17.053 43.9735V46.6402C17.053 50.3788 20.1654 53.3069 24.1396 53.3069H36.8952V59.9736C36.8952 60.7096 37.5287 61.3069 38.3125 61.3069C39.0962 61.3069 39.7297 60.7096 39.7297 59.9736V51.9736C39.7297 51.2377 39.0962 50.6404 38.3125 50.6404H24.1396C21.7542 50.6404 19.8877 48.883 19.8877 46.6404V45.3071H65.2411V46.6404C65.241 48.883 63.3743 50.6404 60.9891 50.6404Z" fill="#D4C17F"/>
<path d="M75.1407 31.4018C75.1548 31.5898 75.162 31.7818 75.162 31.9738C75.162 32.7098 75.7954 33.3071 76.5792 33.3071C77.363 33.3071 77.9964 32.7098 77.9964 31.9738C77.9964 31.7179 77.9865 31.4645 77.9667 31.2124C77.9114 30.4792 77.2482 29.9245 76.453 29.9765C75.6722 30.0298 75.0854 30.6671 75.1407 31.4018Z" fill="#D4C17F"/>
<path d="M72.1474 24.0831C71.6301 24.6364 71.6869 25.4778 72.2735 25.9657C72.6024 26.2378 72.9098 26.5351 73.1877 26.8498C73.4697 27.1671 73.8723 27.3298 74.279 27.3298C74.5979 27.3298 74.9196 27.2285 75.1847 27.0218C75.7856 26.5498 75.8679 25.7098 75.3661 25.1432C74.9962 24.7245 74.5851 24.3273 74.1472 23.9645C73.5619 23.4792 72.6661 23.5298 72.1474 24.0831Z" fill="#D4C17F"/>
<path d="M43.9816 30.5657C43.9816 29.8298 43.3481 29.2324 42.5643 29.2324C41.7806 29.2324 41.1471 29.8298 41.1471 30.5657V32.0484C41.1471 32.7843 41.7806 33.3817 42.5643 33.3817C43.3481 33.3817 43.9816 32.7843 43.9816 32.0484V30.5657Z" fill="#D4C17F"/>
<path d="M42.5643 36.6404C41.7806 36.6404 41.1471 37.2377 41.1471 37.9737V38.6404C41.1471 39.3763 41.7806 39.9737 42.5643 39.9737C43.3481 39.9737 43.9816 39.3763 43.9816 38.6404V37.9737C43.9816 37.2377 43.3479 36.6404 42.5643 36.6404Z" fill="#D4C17F"/>
<path d="M48.2334 38.6404C48.2334 39.3763 48.8669 39.9737 49.6507 39.9737C50.4345 39.9737 51.0679 39.3763 51.0679 38.6404V37.9737C51.0679 37.2377 50.4345 36.6404 49.6507 36.6404C48.8669 36.6404 48.2334 37.2377 48.2334 37.9737V38.6404Z" fill="#D4C17F"/>
<path d="M43.9815 23.9739C43.9815 23.7632 43.9844 23.5553 43.9915 23.3459C44.0084 22.7765 43.6386 22.2873 43.1086 22.0832C43.0548 22.0606 42.9938 22.0606 42.937 22.0446C42.8307 22.0179 42.7301 21.9779 42.6153 21.9753C42.6012 21.9739 42.5884 21.9739 42.5728 21.9739C42.57 21.9739 42.5671 21.9753 42.5643 21.9753C42.5615 21.9753 42.5587 21.9739 42.5558 21.9739C42.5402 21.9739 42.5274 21.9739 42.5133 21.9753C42.3986 21.9779 42.2964 22.0179 42.1916 22.0446C42.135 22.0606 42.0725 22.0606 42.02 22.0832C41.4901 22.2873 41.12 22.7765 41.1371 23.3459C41.1443 23.5553 41.1471 23.7632 41.1471 23.9739V24.6406C41.1471 25.3765 41.7805 25.9739 42.5643 25.9739C43.3481 25.9739 43.9815 25.3765 43.9815 24.6406V23.9739Z" fill="#D4C17F"/>
<path d="M34.0606 38.6404C34.0606 39.3763 34.694 39.9737 35.4778 39.9737C36.2616 39.9737 36.895 39.3763 36.895 38.6404V37.9737C36.895 37.2377 36.2616 36.6404 35.4778 36.6404C34.694 36.6404 34.0606 37.2377 34.0606 37.9737V38.6404Z" fill="#D4C17F"/>
<path d="M35.4778 33.8671C36.2616 33.8671 36.895 33.2698 36.895 32.5338V31.1792C36.895 30.4432 36.2616 29.8459 35.4778 29.8459C34.694 29.8459 34.0606 30.4432 34.0606 31.1792V32.5338C34.0606 33.2698 34.694 33.8671 35.4778 33.8671Z" fill="#D4C17F"/>
<path d="M29.8087 38.6404V37.9737C29.8087 37.2377 29.1752 36.6404 28.3914 36.6404C27.6077 36.6404 26.9742 37.2377 26.9742 37.9737V38.6404C26.9742 39.3763 27.6077 39.9737 28.3914 39.9737C29.1752 39.9737 29.8087 39.3765 29.8087 38.6404Z" fill="#D4C17F"/>
<path d="M9.94377 27.0218C10.2088 27.2285 10.5291 27.3298 10.8494 27.3298C11.2562 27.3298 11.6588 27.1671 11.9408 26.8498C12.2187 26.5351 12.5261 26.2378 12.855 25.9657C13.4418 25.4778 13.4984 24.6364 12.981 24.0831C12.4652 23.5298 11.5694 23.4764 10.9812 23.9643C10.5432 24.327 10.1321 24.7243 9.7609 25.1431C9.26064 25.7098 9.34286 26.5498 9.94377 27.0218Z" fill="#D4C17F"/>
<path d="M77.9966 63.9738H48.2334V57.3071C48.2334 56.5711 47.6 55.9738 46.8162 55.9738C46.0324 55.9738 45.399 56.5711 45.399 57.3071V65.3071C45.399 66.043 46.0324 66.6403 46.8162 66.6403H76.5794V73.307C76.5794 75.5124 74.6717 77.307 72.3275 77.307H12.8012C10.457 77.307 8.54928 75.5124 8.54928 73.307V66.6403H41.2647C42.0485 66.6403 42.6819 66.043 42.6819 65.3071C42.6819 64.5711 42.0485 63.9738 41.2647 63.9738H7.13188C6.3481 63.9738 5.71464 64.5711 5.71464 65.3071V73.307C5.71464 76.983 8.89358 79.9738 12.8012 79.9738H72.3275C76.2349 79.9738 79.414 76.9831 79.414 73.307V65.3071C79.4138 64.5711 78.7804 63.9738 77.9966 63.9738Z" fill="#D4C17F"/>
<path d="M34.0606 70.6403V73.307C34.0606 74.043 34.694 74.6403 35.4778 74.6403C36.2616 74.6403 36.895 74.043 36.895 73.307V70.6403C36.895 69.9044 36.2616 69.3071 35.4778 69.3071C34.694 69.3071 34.0606 69.9044 34.0606 70.6403Z" fill="#D4C17F"/>
<path d="M1.52653 25.9751C1.50959 25.9737 1.49248 25.9737 1.47554 25.9737C0.71734 25.9737 0.0865334 26.5404 0.0611217 27.2604C0.0511564 27.4978 0.0455093 27.7351 0.0455093 27.9737C0.0455093 28.7096 0.678973 29.307 1.46275 29.307C2.24652 29.307 2.87999 28.7096 2.87999 27.9737C2.87999 27.7657 2.88563 27.5604 2.89278 27.3537C2.91968 26.6178 2.30881 26.0004 1.52653 25.9751Z" fill="#D4C17F"/>
<path d="M7.64925 17.4139C7.96664 17.1259 8.297 16.8512 8.63715 16.5898C9.2437 16.1231 9.33439 15.2831 8.83845 14.7139C8.34383 14.1445 7.45094 14.0565 6.84438 14.5245C6.44327 14.8339 6.05346 15.1578 5.68225 15.4965C5.11821 16.0072 5.1026 16.8512 5.64538 17.3818C5.92325 17.6525 6.29446 17.7886 6.66583 17.7886C7.01994 17.7884 7.3757 17.6645 7.64925 17.4139Z" fill="#D4C17F"/>
<path d="M3.90194 19.6031C3.2032 19.2751 2.34851 19.539 1.99989 20.1978C1.76753 20.6325 1.55195 21.0792 1.35928 21.5337C1.06879 22.219 1.42306 22.9937 2.1487 23.267C2.3216 23.3323 2.49882 23.3629 2.67454 23.3629C3.23725 23.3629 3.77007 23.0456 3.99113 22.5243C4.15406 22.139 4.3356 21.7617 4.53258 21.3923C4.88402 20.7339 4.60201 19.9339 3.90194 19.6031Z" fill="#D4C17F"/>
<path d="M6.45439 5.56311C6.69389 5.56311 6.93771 5.50576 7.16027 5.38576C7.54444 5.17779 7.93408 4.9817 8.33236 4.79904C9.03392 4.47373 9.32309 3.67373 8.97862 3.01374C8.63282 2.35233 7.78095 2.08171 7.08088 2.40577C6.62729 2.61514 6.18234 2.8378 5.74586 3.07374C5.06838 3.4417 4.83453 4.25639 5.22567 4.89514C5.48792 5.32311 5.96543 5.56311 6.45439 5.56311Z" fill="#D4C17F"/>
<path d="M19.8875 70.6403V73.307C19.8875 74.043 20.521 74.6403 21.3048 74.6403C22.0885 74.6403 22.722 74.043 22.722 73.307V70.6403C22.722 69.9044 22.0885 69.3071 21.3048 69.3071C20.521 69.3071 19.8875 69.9044 19.8875 70.6403Z" fill="#D4C17F"/>
<path d="M82.9798 23.2671C83.7054 22.9938 84.0597 22.2192 83.7692 21.5339C83.5764 21.0792 83.3609 20.6325 83.1286 20.1979C82.7785 19.5393 81.9268 19.2765 81.2265 19.6032C80.5265 19.9339 80.2443 20.7339 80.5959 21.3926C80.7929 21.762 80.9742 22.1393 81.1373 22.5246C81.3584 23.046 81.8914 23.3632 82.4526 23.3632C82.6297 23.3631 82.8069 23.3324 82.9798 23.2671Z" fill="#D4C17F"/>
<path d="M85.0675 27.2604C85.0419 26.5231 84.3475 25.9324 83.6021 25.9751C82.8198 26.0004 82.209 26.6178 82.2359 27.3537C82.243 27.5604 82.2487 27.7657 82.2487 27.9737C82.2487 28.7096 82.8821 29.307 83.6659 29.307C84.4497 29.307 85.0831 28.7096 85.0831 27.9737C85.0831 27.7351 85.0773 27.4978 85.0675 27.2604Z" fill="#D4C17F"/>
<path d="M79.3813 3.0739C78.9461 2.83797 78.5012 2.61531 78.0476 2.40594C77.3503 2.08328 76.4957 2.3539 76.1499 3.0139C75.8054 3.6739 76.0945 4.4739 76.7961 4.79921C77.1944 4.98187 77.5842 5.17796 77.9669 5.38593C78.1908 5.50593 78.4346 5.56327 78.6727 5.56327C79.1632 5.56327 79.6407 5.32327 79.903 4.89531C80.2939 4.25656 80.0601 3.44187 79.3813 3.0739Z" fill="#D4C17F"/>
<path d="M65.241 73.307V70.6403C65.241 69.9044 64.6075 69.3071 63.8237 69.3071C63.04 69.3071 62.4065 69.9044 62.4065 70.6403V73.307C62.4065 74.043 63.04 74.6403 63.8237 74.6403C64.6075 74.6403 65.241 74.043 65.241 73.307Z" fill="#D4C17F"/>
<path d="M51.0681 73.307V70.6403C51.0681 69.9044 50.4346 69.3071 49.6508 69.3071C48.8671 69.3071 48.2336 69.9044 48.2336 70.6403V73.307C48.2336 74.043 48.8671 74.6403 49.6508 74.6403C50.4345 74.6403 51.0681 74.043 51.0681 73.307Z" fill="#D4C17F"/>
<path d="M78.2843 14.5245C77.6762 14.0565 76.7833 14.1445 76.2902 14.7139C75.7941 15.2833 75.8848 16.1233 76.49 16.5898C76.8317 16.8512 77.1618 17.1258 77.4792 17.4139C77.7528 17.6645 78.1085 17.7886 78.4628 17.7886C78.8342 17.7886 79.2041 17.6526 79.4833 17.3818C80.026 16.8512 80.0104 16.0072 79.4464 15.4965C79.0752 15.1578 78.6854 14.8339 78.2843 14.5245Z" fill="#D4C17F"/>
<path d="M8.67534 29.9765C7.86599 29.9259 7.21691 30.4792 7.16028 31.2124C7.14184 31.4645 7.13187 31.7177 7.13187 31.9738C7.13187 32.7098 7.76534 33.3071 8.54911 33.3071C9.33289 33.3071 9.96635 32.7098 9.96635 31.9738C9.96635 31.7818 9.97349 31.5898 9.98761 31.4018C10.0431 30.6671 9.45629 30.0298 8.67534 29.9765Z" fill="#D4C17F"/>
<path d="M28.122 29.4445C27.3482 29.5404 26.8011 30.2098 26.9031 30.9404C26.95 31.279 26.974 31.6231 26.974 31.9737V32.2043C26.974 32.9416 27.6075 33.5376 28.3913 33.5376C29.1751 33.5376 29.8085 32.9416 29.8085 32.2043V31.9737C29.8085 31.5084 29.7773 31.0431 29.7135 30.5923C29.6102 29.8631 28.9128 29.3471 28.122 29.4445Z" fill="#D4C17F"/>
<path d="M26.5204 4.02453C26.9372 4.1725 27.3481 4.33391 27.7535 4.50453C27.942 4.58453 28.1377 4.62187 28.3318 4.62187C28.8733 4.62187 29.3905 4.32859 29.6258 3.83391C29.9475 3.16188 29.6273 2.3725 28.913 2.07125C28.458 1.87922 27.9945 1.69797 27.5255 1.52985C26.7983 1.27391 25.9763 1.61516 25.6986 2.30453C25.4193 2.9925 25.7877 3.76188 26.5204 4.02453Z" fill="#D4C17F"/>
<path d="M25.972 15.1125C26.3562 15.3125 26.733 15.5271 27.0973 15.7551C27.3396 15.9084 27.6118 15.9804 27.8839 15.9804C28.3403 15.9804 28.7896 15.7737 29.0631 15.3898C29.4983 14.7778 29.3225 13.9486 28.672 13.5392C28.2411 13.2686 27.796 13.0139 27.3398 12.7778C26.6523 12.4245 25.7921 12.6565 25.4136 13.3018C25.0366 13.9457 25.2874 14.7578 25.972 15.1125Z" fill="#D4C17F"/>
<path d="M1.46276 9.30717C1.84693 9.30717 2.23092 9.16045 2.51012 8.87248C2.65611 8.72186 2.80642 8.57248 2.95939 8.42717C3.50499 7.90046 3.49652 7.05655 2.93664 6.54187C2.37957 6.02718 1.48385 6.03655 0.932605 6.56062C0.758211 6.72858 0.585313 6.90061 0.415238 7.0753C-0.111929 7.61936 -0.070905 8.46327 0.507417 8.95936C0.779637 9.19248 1.12112 9.30717 1.46276 9.30717Z" fill="#D4C17F"/>
<path d="M23.7411 25.6951C24.0869 25.9537 24.4115 26.2365 24.7063 26.5351C24.987 26.8192 25.3653 26.9618 25.7465 26.9618C26.0909 26.9618 26.4367 26.8445 26.7116 26.6059C27.2843 26.1059 27.3169 25.2618 26.7854 24.7218C26.3927 24.3245 25.9619 23.9485 25.5042 23.6071C24.8876 23.1485 23.9976 23.2457 23.5129 23.8218C23.0254 24.3978 23.1274 25.2365 23.7411 25.6951Z" fill="#D4C17F"/>
<path d="M31.6724 20.1684C31.9416 20.5711 32.4023 20.7911 32.8729 20.7911C33.1323 20.7911 33.3916 20.7243 33.6269 20.587C34.2888 20.1937 34.4886 19.3696 34.0705 18.747C33.7927 18.3337 33.4979 17.9311 33.1876 17.5417C32.7156 16.9564 31.8285 16.835 31.202 17.279C30.577 17.7231 30.4523 18.559 30.9228 19.147C31.1875 19.4765 31.437 19.8178 31.6724 20.1684Z" fill="#D4C17F"/>
<path d="M32.3271 7.08576C32.6785 7.34045 33.023 7.60717 33.3588 7.8817C33.6267 8.1017 33.9584 8.20842 34.2886 8.20842C34.6841 8.20842 35.078 8.05373 35.3572 7.75107C35.8718 7.19513 35.8093 6.35248 35.2184 5.86967C34.8413 5.55904 34.453 5.26029 34.0547 4.97233C33.4354 4.5217 32.5468 4.63233 32.0677 5.21639C31.5915 5.80045 31.7064 6.63654 32.3271 7.08576Z" fill="#D4C17F"/>
<path d="M13.0576 3.18578C13.1583 3.18578 13.2589 3.17641 13.3609 3.15516C13.796 3.06578 14.2353 2.98719 14.6761 2.92047C15.45 2.80579 15.9758 2.12188 15.8526 1.39516C15.7306 0.668445 15.0065 0.167196 14.2312 0.288446C13.7338 0.363134 13.242 0.449852 12.7558 0.551102C11.9905 0.708445 11.5072 1.41907 11.6744 2.13907C11.8202 2.76188 12.4057 3.18578 13.0576 3.18578Z" fill="#D4C17F"/>
<path d="M20.0222 2.68984C20.4702 2.71921 20.9136 2.75921 21.3516 2.81124C21.4111 2.81796 21.472 2.82187 21.5301 2.82187C22.2345 2.82187 22.8454 2.32859 22.9346 1.65515C23.0337 0.924526 22.4825 0.257809 21.7059 0.165778C21.2126 0.107184 20.7138 0.0604654 20.2106 0.0298405C19.4467 -0.0234407 18.7521 0.536558 18.7011 1.27124C18.6503 2.00577 19.2398 2.64046 20.0222 2.68984Z" fill="#D4C17F"/>
<path d="M34.7465 23.1392C33.9827 23.3018 33.5035 24.0151 33.6764 24.7339C33.7742 25.1338 33.8508 25.5392 33.9102 25.9498C34.0081 26.6192 34.6161 27.1045 35.3149 27.1045C35.3786 27.1045 35.4424 27.1004 35.5062 27.0912C36.2815 26.9926 36.8258 26.3206 36.7208 25.5912C36.6499 25.1032 36.5564 24.6206 36.4429 24.1445C36.27 23.4271 35.5062 22.9778 34.7465 23.1392Z" fill="#D4C17F"/>
<path d="M12.7302 14.2418C12.889 14.2418 13.0506 14.2165 13.2092 14.1632C13.6203 14.0232 14.0399 13.9006 14.4664 13.7953C15.2232 13.6059 15.6738 12.8767 15.474 12.1647C15.2727 11.4526 14.4961 11.0326 13.7407 11.2167C13.2376 11.342 12.74 11.4887 12.2511 11.6526C11.5155 11.9006 11.1315 12.6647 11.3964 13.3579C11.6035 13.9018 12.1491 14.2418 12.7302 14.2418Z" fill="#D4C17F"/>
<path d="M19.7018 13.3525C20.1426 13.3845 20.5778 13.4339 21.01 13.5004C21.0878 13.5125 21.1644 13.5178 21.241 13.5178C21.9228 13.5178 22.5237 13.0551 22.637 12.4019C22.7645 11.6751 22.2415 10.9886 21.4692 10.8686C20.9605 10.79 20.4444 10.7312 19.9201 10.6939C19.1491 10.6298 18.4588 11.1845 18.3979 11.9192C18.3371 12.6539 18.9209 13.2951 19.7018 13.3525Z" fill="#D4C17F"/>
<path d="M17.4442 24.0231C17.4923 24.0231 17.542 24.0217 17.5915 24.0164C18.0223 23.975 18.4716 23.9631 18.9068 23.9831C19.7218 24.0178 20.3539 23.4537 20.3921 22.7178C20.4318 21.9831 19.8294 21.3578 19.0471 21.3204C18.4675 21.291 17.8735 21.3084 17.301 21.3631C16.5229 21.439 15.956 22.0937 16.0354 22.8271C16.1118 23.5125 16.7255 24.0231 17.4442 24.0231Z" fill="#D4C17F"/>
</g>
<defs>
<clipPath id="clip0_5_2">
<rect width="85.0378" height="80" fill="white" transform="translate(0.0453491)"/>
</clipPath>
</defs>
</svg>
